<mxfile host="app.diagrams.net" modified="2021-07-26T01:51:10.431Z" agent="5.0 (Macintosh; Intel Mac OS X 10_15_7) AppleWebKit/537.36 (KHTML, like Gecko) Chrome/92.0.4515.107 Safari/537.36 Edg/92.0.902.55" etag="CfQLaiyIL-IdQ9J18am2" version="14.9.2" type="github">
  <diagram name="Page-1" id="74e2e168-ea6b-b213-b513-2b3c1d86103e">
    <mxGraphModel dx="3166" dy="1129" grid="1" gridSize="10" guides="1" tooltips="1" connect="1" arrows="1" fold="1" page="1" pageScale="1" pageWidth="1100" pageHeight="850" background="none" math="0" shadow="0">
      <root>
        <mxCell id="0" />
        <mxCell id="1" parent="0" />
        <mxCell id="e0a0mlrAqAKEXTUKsguY-5" value="Main Game Play Loop for a Cooperative Narrative Story Telling Game (RPG)" style="swimlane;childLayout=stackLayout;resizeParent=1;resizeParentMax=0;horizontal=1;startSize=20;horizontalStack=0;" parent="1" vertex="1">
          <mxGeometry x="-260" y="80" width="1500" height="640" as="geometry" />
        </mxCell>
        <mxCell id="e0a0mlrAqAKEXTUKsguY-14" value="No" style="edgeStyle=orthogonalEdgeStyle;rounded=0;orthogonalLoop=1;jettySize=auto;html=1;entryX=0.5;entryY=1;entryDx=0;entryDy=0;startArrow=none;startFill=0;entryPerimeter=0;fillColor=#d5e8d4;strokeColor=#82b366;strokeWidth=4;" parent="e0a0mlrAqAKEXTUKsguY-5" source="se_myZtcoQrNugmu_MZx-2" target="se_myZtcoQrNugmu_MZx-6" edge="1">
          <mxGeometry relative="1" as="geometry">
            <mxPoint x="640" y="110" as="targetPoint" />
          </mxGeometry>
        </mxCell>
        <mxCell id="e0a0mlrAqAKEXTUKsguY-16" style="edgeStyle=orthogonalEdgeStyle;rounded=0;orthogonalLoop=1;jettySize=auto;html=1;entryX=0;entryY=0.5;entryDx=0;entryDy=0;startArrow=none;startFill=0;exitX=0.5;exitY=1;exitDx=0;exitDy=0;strokeWidth=4;fillColor=#d5e8d4;strokeColor=#82b366;" parent="e0a0mlrAqAKEXTUKsguY-5" source="e0a0mlrAqAKEXTUKsguY-1" target="e0a0mlrAqAKEXTUKsguY-9" edge="1">
          <mxGeometry relative="1" as="geometry" />
        </mxCell>
        <mxCell id="e0a0mlrAqAKEXTUKsguY-6" value="Game Master" style="swimlane;startSize=20;horizontal=0;" parent="e0a0mlrAqAKEXTUKsguY-5" vertex="1">
          <mxGeometry y="20" width="1500" height="360" as="geometry" />
        </mxCell>
        <mxCell id="e0a0mlrAqAKEXTUKsguY-1" value="Narrates the setting and any new&amp;nbsp; changes in it." style="rounded=1;whiteSpace=wrap;html=1;fillColor=#d5e8d4;strokeColor=#82b366;strokeWidth=4;" parent="e0a0mlrAqAKEXTUKsguY-6" vertex="1">
          <mxGeometry x="170" y="40" width="120" height="60" as="geometry" />
        </mxCell>
        <mxCell id="e0a0mlrAqAKEXTUKsguY-15" style="edgeStyle=orthogonalEdgeStyle;rounded=0;orthogonalLoop=1;jettySize=auto;html=1;entryX=0;entryY=0.5;entryDx=0;entryDy=0;startArrow=none;startFill=0;exitX=1;exitY=0.5;exitDx=0;exitDy=0;exitPerimeter=0;fillColor=#fff2cc;strokeColor=#d6b656;strokeWidth=4;" parent="e0a0mlrAqAKEXTUKsguY-6" source="se_myZtcoQrNugmu_MZx-6" target="e0a0mlrAqAKEXTUKsguY-11" edge="1">
          <mxGeometry relative="1" as="geometry">
            <mxPoint x="700" y="60" as="sourcePoint" />
          </mxGeometry>
        </mxCell>
        <mxCell id="se_myZtcoQrNugmu_MZx-7" value="Yes" style="edgeLabel;html=1;align=center;verticalAlign=middle;resizable=0;points=[];" vertex="1" connectable="0" parent="e0a0mlrAqAKEXTUKsguY-15">
          <mxGeometry x="0.2909" y="-2" relative="1" as="geometry">
            <mxPoint as="offset" />
          </mxGeometry>
        </mxCell>
        <mxCell id="e0a0mlrAqAKEXTUKsguY-11" value="Proposes Resolution System for Conflict" style="rounded=1;whiteSpace=wrap;html=1;fillColor=#fff2cc;strokeColor=#d6b656;strokeWidth=5;" parent="e0a0mlrAqAKEXTUKsguY-6" vertex="1">
          <mxGeometry x="790" y="40" width="120" height="60" as="geometry" />
        </mxCell>
        <mxCell id="e0a0mlrAqAKEXTUKsguY-44" style="edgeStyle=orthogonalEdgeStyle;rounded=0;orthogonalLoop=1;jettySize=auto;html=1;entryX=0;entryY=0.5;entryDx=0;entryDy=0;entryPerimeter=0;startArrow=none;startFill=0;exitX=1;exitY=0.5;exitDx=0;exitDy=0;strokeWidth=4;fillColor=#d5e8d4;strokeColor=#82b366;" parent="e0a0mlrAqAKEXTUKsguY-6" source="e0a0mlrAqAKEXTUKsguY-19" target="e0a0mlrAqAKEXTUKsguY-43" edge="1">
          <mxGeometry relative="1" as="geometry">
            <Array as="points">
              <mxPoint x="1220" y="130" />
              <mxPoint x="1220" y="130" />
            </Array>
          </mxGeometry>
        </mxCell>
        <mxCell id="e0a0mlrAqAKEXTUKsguY-19" value="Goto Proposed Resolution System" style="ellipse;whiteSpace=wrap;html=1;aspect=fixed;strokeWidth=4;fillColor=#d5e8d4;strokeColor=#82b366;" parent="e0a0mlrAqAKEXTUKsguY-6" vertex="1">
          <mxGeometry x="1120" y="90" width="80" height="80" as="geometry" />
        </mxCell>
        <mxCell id="e0a0mlrAqAKEXTUKsguY-23" style="edgeStyle=orthogonalEdgeStyle;rounded=0;orthogonalLoop=1;jettySize=auto;html=1;startArrow=none;startFill=0;strokeWidth=4;fillColor=#d5e8d4;strokeColor=#82b366;" parent="e0a0mlrAqAKEXTUKsguY-6" source="e0a0mlrAqAKEXTUKsguY-22" target="e0a0mlrAqAKEXTUKsguY-1" edge="1">
          <mxGeometry relative="1" as="geometry" />
        </mxCell>
        <mxCell id="e0a0mlrAqAKEXTUKsguY-22" value="Start" style="strokeWidth=4;html=1;shape=mxgraph.flowchart.start_1;whiteSpace=wrap;fillColor=#d5e8d4;strokeColor=#82b366;" parent="e0a0mlrAqAKEXTUKsguY-6" vertex="1">
          <mxGeometry x="40" y="40" width="100" height="60" as="geometry" />
        </mxCell>
        <mxCell id="e0a0mlrAqAKEXTUKsguY-46" style="edgeStyle=orthogonalEdgeStyle;rounded=0;orthogonalLoop=1;jettySize=auto;html=1;startArrow=none;startFill=0;strokeWidth=4;fillColor=#d5e8d4;strokeColor=#82b366;" parent="e0a0mlrAqAKEXTUKsguY-6" source="e0a0mlrAqAKEXTUKsguY-43" target="e0a0mlrAqAKEXTUKsguY-45" edge="1">
          <mxGeometry relative="1" as="geometry" />
        </mxCell>
        <mxCell id="e0a0mlrAqAKEXTUKsguY-47" value="Yes" style="edgeLabel;html=1;align=center;verticalAlign=middle;resizable=0;points=[];" parent="e0a0mlrAqAKEXTUKsguY-46" vertex="1" connectable="0">
          <mxGeometry x="-0.0571" relative="1" as="geometry">
            <mxPoint as="offset" />
          </mxGeometry>
        </mxCell>
        <mxCell id="e0a0mlrAqAKEXTUKsguY-48" value="No" style="edgeStyle=orthogonalEdgeStyle;rounded=0;orthogonalLoop=1;jettySize=auto;html=1;startArrow=none;startFill=0;fillColor=#d5e8d4;strokeColor=#82b366;strokeWidth=4;exitX=0.5;exitY=0;exitDx=0;exitDy=0;exitPerimeter=0;" parent="e0a0mlrAqAKEXTUKsguY-6" source="e0a0mlrAqAKEXTUKsguY-43" edge="1">
          <mxGeometry relative="1" as="geometry">
            <Array as="points">
              <mxPoint x="1410" y="10" />
              <mxPoint x="230" y="10" />
            </Array>
            <mxPoint x="230" y="39" as="targetPoint" />
          </mxGeometry>
        </mxCell>
        <mxCell id="e0a0mlrAqAKEXTUKsguY-43" value="Time to Stop?" style="strokeWidth=4;html=1;shape=mxgraph.flowchart.decision;whiteSpace=wrap;fillColor=#d5e8d4;strokeColor=#82b366;" parent="e0a0mlrAqAKEXTUKsguY-6" vertex="1">
          <mxGeometry x="1360" y="80" width="100" height="100" as="geometry" />
        </mxCell>
        <mxCell id="e0a0mlrAqAKEXTUKsguY-45" value="Stop" style="strokeWidth=4;html=1;shape=mxgraph.flowchart.start_1;whiteSpace=wrap;fillColor=#d5e8d4;strokeColor=#82b366;" parent="e0a0mlrAqAKEXTUKsguY-6" vertex="1">
          <mxGeometry x="1360" y="265" width="100" height="60" as="geometry" />
        </mxCell>
        <mxCell id="se_myZtcoQrNugmu_MZx-8" value="No" style="edgeStyle=orthogonalEdgeStyle;rounded=0;orthogonalLoop=1;jettySize=auto;html=1;entryX=1;entryY=0.5;entryDx=0;entryDy=0;startArrow=none;startFill=0;strokeWidth=4;fillColor=#d5e8d4;strokeColor=#82b366;" edge="1" parent="e0a0mlrAqAKEXTUKsguY-6" source="se_myZtcoQrNugmu_MZx-6" target="e0a0mlrAqAKEXTUKsguY-1">
          <mxGeometry relative="1" as="geometry" />
        </mxCell>
        <mxCell id="se_myZtcoQrNugmu_MZx-6" value="Is there any Conflict" style="strokeWidth=4;html=1;shape=mxgraph.flowchart.decision;whiteSpace=wrap;fillColor=#d5e8d4;strokeColor=#82b366;" vertex="1" parent="e0a0mlrAqAKEXTUKsguY-6">
          <mxGeometry x="590" y="20" width="100" height="100" as="geometry" />
        </mxCell>
        <mxCell id="e0a0mlrAqAKEXTUKsguY-33" value="Agree with Proposal" style="strokeWidth=4;html=1;shape=mxgraph.flowchart.decision;whiteSpace=wrap;fillColor=#d5e8d4;strokeColor=#82b366;" parent="e0a0mlrAqAKEXTUKsguY-6" vertex="1">
          <mxGeometry x="1020" y="250" width="100" height="100" as="geometry" />
        </mxCell>
        <mxCell id="e0a0mlrAqAKEXTUKsguY-20" style="edgeStyle=orthogonalEdgeStyle;rounded=0;orthogonalLoop=1;jettySize=auto;html=1;startArrow=none;startFill=0;exitX=0.5;exitY=0;exitDx=0;exitDy=0;exitPerimeter=0;strokeWidth=4;fillColor=#d5e8d4;strokeColor=#82b366;" parent="e0a0mlrAqAKEXTUKsguY-6" source="e0a0mlrAqAKEXTUKsguY-33" edge="1">
          <mxGeometry relative="1" as="geometry">
            <mxPoint x="1040" y="60" as="sourcePoint" />
            <Array as="points">
              <mxPoint x="1070" y="220" />
              <mxPoint x="1160" y="220" />
            </Array>
            <mxPoint x="1160" y="170" as="targetPoint" />
          </mxGeometry>
        </mxCell>
        <mxCell id="e0a0mlrAqAKEXTUKsguY-41" value="Yes" style="edgeLabel;html=1;align=center;verticalAlign=middle;resizable=0;points=[];" parent="e0a0mlrAqAKEXTUKsguY-20" vertex="1" connectable="0">
          <mxGeometry x="-0.2" y="-1" relative="1" as="geometry">
            <mxPoint as="offset" />
          </mxGeometry>
        </mxCell>
        <mxCell id="e0a0mlrAqAKEXTUKsguY-35" value="Allow More Discussion&amp;nbsp;" style="strokeWidth=5;html=1;shape=mxgraph.flowchart.decision;whiteSpace=wrap;fillColor=#f8cecc;strokeColor=#b85450;" parent="e0a0mlrAqAKEXTUKsguY-6" vertex="1">
          <mxGeometry x="1190" y="250" width="100" height="100" as="geometry" />
        </mxCell>
        <mxCell id="e0a0mlrAqAKEXTUKsguY-37" style="edgeStyle=orthogonalEdgeStyle;rounded=0;orthogonalLoop=1;jettySize=auto;html=1;startArrow=none;startFill=0;exitX=0.5;exitY=0;exitDx=0;exitDy=0;exitPerimeter=0;fillColor=#f8cecc;strokeColor=#b85450;strokeWidth=4;" parent="e0a0mlrAqAKEXTUKsguY-6" source="e0a0mlrAqAKEXTUKsguY-35" edge="1">
          <mxGeometry relative="1" as="geometry">
            <mxPoint x="1160" y="170" as="targetPoint" />
            <Array as="points">
              <mxPoint x="1240" y="220" />
              <mxPoint x="1160" y="220" />
            </Array>
          </mxGeometry>
        </mxCell>
        <mxCell id="e0a0mlrAqAKEXTUKsguY-39" value="No" style="edgeLabel;html=1;align=center;verticalAlign=middle;resizable=0;points=[];" parent="e0a0mlrAqAKEXTUKsguY-37" vertex="1" connectable="0">
          <mxGeometry x="-0.4316" y="3" relative="1" as="geometry">
            <mxPoint as="offset" />
          </mxGeometry>
        </mxCell>
        <mxCell id="e0a0mlrAqAKEXTUKsguY-38" style="edgeStyle=orthogonalEdgeStyle;rounded=0;orthogonalLoop=1;jettySize=auto;html=1;entryX=1;entryY=0.5;entryDx=0;entryDy=0;startArrow=none;startFill=0;exitX=1;exitY=0.5;exitDx=0;exitDy=0;exitPerimeter=0;fillColor=#fff2cc;strokeColor=#d6b656;strokeWidth=4;" parent="e0a0mlrAqAKEXTUKsguY-6" source="e0a0mlrAqAKEXTUKsguY-35" target="e0a0mlrAqAKEXTUKsguY-11" edge="1">
          <mxGeometry relative="1" as="geometry" />
        </mxCell>
        <mxCell id="e0a0mlrAqAKEXTUKsguY-42" value="Yes" style="edgeLabel;html=1;align=center;verticalAlign=middle;resizable=0;points=[];" parent="e0a0mlrAqAKEXTUKsguY-38" vertex="1" connectable="0">
          <mxGeometry x="-0.2581" relative="1" as="geometry">
            <mxPoint as="offset" />
          </mxGeometry>
        </mxCell>
        <mxCell id="e0a0mlrAqAKEXTUKsguY-36" style="edgeStyle=orthogonalEdgeStyle;rounded=0;orthogonalLoop=1;jettySize=auto;html=1;entryX=0;entryY=0.5;entryDx=0;entryDy=0;entryPerimeter=0;startArrow=none;startFill=0;fillColor=#f8cecc;strokeColor=#b85450;strokeWidth=4;" parent="e0a0mlrAqAKEXTUKsguY-6" source="e0a0mlrAqAKEXTUKsguY-33" target="e0a0mlrAqAKEXTUKsguY-35" edge="1">
          <mxGeometry relative="1" as="geometry" />
        </mxCell>
        <mxCell id="e0a0mlrAqAKEXTUKsguY-40" value="No" style="edgeLabel;html=1;align=center;verticalAlign=middle;resizable=0;points=[];" parent="e0a0mlrAqAKEXTUKsguY-36" vertex="1" connectable="0">
          <mxGeometry x="-0.32" y="-1" relative="1" as="geometry">
            <mxPoint as="offset" />
          </mxGeometry>
        </mxCell>
        <mxCell id="se_myZtcoQrNugmu_MZx-10" style="edgeStyle=orthogonalEdgeStyle;rounded=0;orthogonalLoop=1;jettySize=auto;html=1;entryX=0;entryY=0.5;entryDx=0;entryDy=0;startArrow=none;startFill=0;strokeWidth=4;jumpStyle=arc;fillColor=#fff2cc;strokeColor=#d6b656;" edge="1" parent="e0a0mlrAqAKEXTUKsguY-5" source="se_myZtcoQrNugmu_MZx-9" target="e0a0mlrAqAKEXTUKsguY-19">
          <mxGeometry relative="1" as="geometry">
            <Array as="points">
              <mxPoint x="980" y="450" />
              <mxPoint x="980" y="150" />
            </Array>
          </mxGeometry>
        </mxCell>
        <mxCell id="se_myZtcoQrNugmu_MZx-11" value="Yes" style="edgeLabel;html=1;align=center;verticalAlign=middle;resizable=0;points=[];" vertex="1" connectable="0" parent="se_myZtcoQrNugmu_MZx-10">
          <mxGeometry x="-0.8171" y="-1" relative="1" as="geometry">
            <mxPoint as="offset" />
          </mxGeometry>
        </mxCell>
        <mxCell id="se_myZtcoQrNugmu_MZx-13" style="edgeStyle=orthogonalEdgeStyle;rounded=0;orthogonalLoop=1;jettySize=auto;html=1;startArrow=none;startFill=0;strokeWidth=4;fillColor=#fff2cc;strokeColor=#d6b656;" edge="1" parent="e0a0mlrAqAKEXTUKsguY-5" source="e0a0mlrAqAKEXTUKsguY-11" target="se_myZtcoQrNugmu_MZx-9">
          <mxGeometry relative="1" as="geometry" />
        </mxCell>
        <mxCell id="e0a0mlrAqAKEXTUKsguY-7" value="Players" style="swimlane;startSize=20;horizontal=0;" parent="e0a0mlrAqAKEXTUKsguY-5" vertex="1">
          <mxGeometry y="380" width="1500" height="260" as="geometry" />
        </mxCell>
        <mxCell id="se_myZtcoQrNugmu_MZx-3" style="edgeStyle=orthogonalEdgeStyle;rounded=0;orthogonalLoop=1;jettySize=auto;html=1;entryX=0;entryY=0.5;entryDx=0;entryDy=0;entryPerimeter=0;startArrow=none;startFill=0;strokeWidth=4;fillColor=#d5e8d4;strokeColor=#82b366;" edge="1" parent="e0a0mlrAqAKEXTUKsguY-7" source="e0a0mlrAqAKEXTUKsguY-9" target="se_myZtcoQrNugmu_MZx-2">
          <mxGeometry relative="1" as="geometry" />
        </mxCell>
        <mxCell id="e0a0mlrAqAKEXTUKsguY-9" value="Narrates the Setting and any changes in it regarding everything the players have agency over" style="rounded=1;whiteSpace=wrap;html=1;strokeWidth=4;fillColor=#d5e8d4;strokeColor=#82b366;" parent="e0a0mlrAqAKEXTUKsguY-7" vertex="1">
          <mxGeometry x="320" y="170" width="200" height="60" as="geometry" />
        </mxCell>
        <mxCell id="e0a0mlrAqAKEXTUKsguY-12" value="Propose Resolution System for Conflict based on Character Agency" style="rounded=1;whiteSpace=wrap;html=1;strokeWidth=4;fillColor=#d5e8d4;strokeColor=#82b366;" parent="e0a0mlrAqAKEXTUKsguY-7" vertex="1">
          <mxGeometry x="790" y="170" width="120" height="60" as="geometry" />
        </mxCell>
        <mxCell id="se_myZtcoQrNugmu_MZx-4" style="edgeStyle=orthogonalEdgeStyle;rounded=0;orthogonalLoop=1;jettySize=auto;html=1;entryX=0;entryY=0.5;entryDx=0;entryDy=0;startArrow=none;startFill=0;strokeWidth=4;fillColor=#d5e8d4;strokeColor=#82b366;" edge="1" parent="e0a0mlrAqAKEXTUKsguY-7" source="se_myZtcoQrNugmu_MZx-2" target="e0a0mlrAqAKEXTUKsguY-12">
          <mxGeometry relative="1" as="geometry" />
        </mxCell>
        <mxCell id="se_myZtcoQrNugmu_MZx-5" value="Yes" style="edgeLabel;html=1;align=center;verticalAlign=middle;resizable=0;points=[];" vertex="1" connectable="0" parent="se_myZtcoQrNugmu_MZx-4">
          <mxGeometry x="-0.3455" y="-2" relative="1" as="geometry">
            <mxPoint as="offset" />
          </mxGeometry>
        </mxCell>
        <mxCell id="se_myZtcoQrNugmu_MZx-2" value="Is there any Conflict" style="strokeWidth=4;html=1;shape=mxgraph.flowchart.decision;whiteSpace=wrap;fillColor=#d5e8d4;strokeColor=#82b366;" vertex="1" parent="e0a0mlrAqAKEXTUKsguY-7">
          <mxGeometry x="590" y="150" width="100" height="100" as="geometry" />
        </mxCell>
        <mxCell id="se_myZtcoQrNugmu_MZx-14" value="How About" style="edgeStyle=orthogonalEdgeStyle;rounded=0;orthogonalLoop=1;jettySize=auto;html=1;startArrow=none;startFill=0;strokeWidth=4;fillColor=#fff2cc;strokeColor=#d6b656;" edge="1" parent="e0a0mlrAqAKEXTUKsguY-7" source="se_myZtcoQrNugmu_MZx-9" target="e0a0mlrAqAKEXTUKsguY-12">
          <mxGeometry x="-0.2" relative="1" as="geometry">
            <mxPoint as="offset" />
          </mxGeometry>
        </mxCell>
        <mxCell id="se_myZtcoQrNugmu_MZx-9" value="Agree with Proposal" style="strokeWidth=4;html=1;shape=mxgraph.flowchart.decision;whiteSpace=wrap;fillColor=#fff2cc;strokeColor=#d6b656;" vertex="1" parent="e0a0mlrAqAKEXTUKsguY-7">
          <mxGeometry x="800" y="20" width="100" height="100" as="geometry" />
        </mxCell>
        <mxCell id="se_myZtcoQrNugmu_MZx-15" style="edgeStyle=orthogonalEdgeStyle;rounded=0;jumpStyle=arc;orthogonalLoop=1;jettySize=auto;html=1;entryX=0;entryY=0.75;entryDx=0;entryDy=0;startArrow=none;startFill=0;strokeWidth=4;exitX=0;exitY=0.5;exitDx=0;exitDy=0;exitPerimeter=0;fillColor=#f8cecc;strokeColor=#b85450;" edge="1" parent="e0a0mlrAqAKEXTUKsguY-5" source="se_myZtcoQrNugmu_MZx-9" target="e0a0mlrAqAKEXTUKsguY-11">
          <mxGeometry relative="1" as="geometry" />
        </mxCell>
        <mxCell id="se_myZtcoQrNugmu_MZx-16" value="No" style="edgeLabel;html=1;align=center;verticalAlign=middle;resizable=0;points=[];" vertex="1" connectable="0" parent="se_myZtcoQrNugmu_MZx-15">
          <mxGeometry x="0.2253" y="-3" relative="1" as="geometry">
            <mxPoint as="offset" />
          </mxGeometry>
        </mxCell>
        <mxCell id="e0a0mlrAqAKEXTUKsguY-34" style="edgeStyle=orthogonalEdgeStyle;rounded=0;orthogonalLoop=1;jettySize=auto;html=1;entryX=0.5;entryY=1;entryDx=0;entryDy=0;entryPerimeter=0;startArrow=none;startFill=0;strokeWidth=4;fillColor=#d5e8d4;strokeColor=#82b366;jumpStyle=arc;exitX=1;exitY=0.5;exitDx=0;exitDy=0;" parent="e0a0mlrAqAKEXTUKsguY-5" source="e0a0mlrAqAKEXTUKsguY-12" target="e0a0mlrAqAKEXTUKsguY-33" edge="1">
          <mxGeometry relative="1" as="geometry">
            <Array as="points">
              <mxPoint x="1070" y="580" />
            </Array>
          </mxGeometry>
        </mxCell>
      </root>
    </mxGraphModel>
  </diagram>
</mxfile>
